<svg width="225" height="150" viewBox="0 0 225 150" fill="none" xmlns="http://www.w3.org/2000/svg">
<g clip-path="url(#clip0_17_291)">
<path d="M176.854 9.34888H0.353394V10.0156H176.854V9.34888Z" fill="#DCDCDC"/>
<path d="M6.36651 7.0021C7.5386 7.0021 8.48876 6.10661 8.48876 5.00196C8.48876 3.89732 7.5386 3.00183 6.36651 3.00183C5.19443 3.00183 4.24426 3.89732 4.24426 5.00196C4.24426 6.10661 5.19443 7.0021 6.36651 7.0021Z" fill="#3F3D56"/>
<path d="M12.468 7.0021C13.64 7.0021 14.5902 6.10661 14.5902 5.00196C14.5902 3.89732 13.64 3.00183 12.468 3.00183C11.2959 3.00183 10.3457 3.89732 10.3457 5.00196C10.3457 6.10661 11.2959 7.0021 12.468 7.0021Z" fill="#3F3D56"/>
<path d="M18.5694 7.0021C19.7415 7.0021 20.6916 6.10661 20.6916 5.00196C20.6916 3.89732 19.7415 3.00183 18.5694 3.00183C17.3973 3.00183 16.4471 3.89732 16.4471 5.00196C16.4471 6.10661 17.3973 7.0021 18.5694 7.0021Z" fill="#3F3D56"/>
<path d="M138.629 48.0406H38.4535C38.1554 48.0406 37.8601 47.9853 37.5847 47.8777C37.3093 47.7702 37.059 47.6126 36.8482 47.4139C36.6374 47.2152 36.4701 46.9794 36.356 46.7198C36.242 46.4602 36.1832 46.182 36.1832 45.901C36.1832 45.62 36.242 45.3418 36.356 45.0822C36.4701 44.8226 36.6374 44.5867 36.8482 44.388C37.059 44.1893 37.3093 44.0317 37.5847 43.9242C37.8601 43.8167 38.1554 43.7614 38.4535 43.7614H138.629C138.927 43.7614 139.222 43.8167 139.498 43.9242C139.773 44.0317 140.023 44.1893 140.234 44.388C140.445 44.5867 140.612 44.8226 140.726 45.0822C140.84 45.3418 140.899 45.62 140.899 45.901C140.899 46.182 140.84 46.4602 140.726 46.7198C140.612 46.9794 140.445 47.2152 140.234 47.4139C140.023 47.6126 139.773 47.7702 139.498 47.8777C139.222 47.9853 138.927 48.0406 138.629 48.0406Z" fill="#DCDCDC"/>
<path d="M138.629 71.0416H38.4535C38.1554 71.0416 37.8601 70.9862 37.5847 70.8787C37.3093 70.7712 37.059 70.6136 36.8482 70.4149C36.6374 70.2162 36.4701 69.9803 36.356 69.7208C36.242 69.4612 36.1832 69.1829 36.1832 68.902C36.1832 68.621 36.242 68.3427 36.356 68.0832C36.4701 67.8236 36.6374 67.5877 36.8482 67.389C37.059 67.1903 37.3093 67.0327 37.5847 66.9252C37.8601 66.8177 38.1554 66.7623 38.4535 66.7623H138.629C138.927 66.7623 139.222 66.8177 139.498 66.9252C139.773 67.0327 140.023 67.1903 140.234 67.389C140.445 67.5877 140.612 67.8236 140.726 68.0832C140.84 68.3427 140.899 68.621 140.899 68.902C140.899 69.1829 140.84 69.4612 140.726 69.7208C140.612 69.9803 140.445 70.2162 140.234 70.4149C140.023 70.6136 139.773 70.7712 139.498 70.8787C139.222 70.9862 138.927 71.0416 138.629 71.0416Z" fill="#DCDCDC"/>
<path d="M138.629 79.8675H38.4535C37.8514 79.8675 37.2739 79.6421 36.8482 79.2408C36.4224 78.8396 36.1832 78.2953 36.1832 77.7279C36.1832 77.1604 36.4224 76.6162 36.8482 76.2149C37.2739 75.8137 37.8514 75.5883 38.4535 75.5883H138.629C139.231 75.5883 139.808 75.8137 140.234 76.2149C140.66 76.6162 140.899 77.1604 140.899 77.7279C140.899 78.2953 140.66 78.8396 140.234 79.2408C139.808 79.6421 139.231 79.8675 138.629 79.8675Z" fill="#DCDCDC"/>
<path d="M122.311 38.9472H54.771C54.1689 38.9472 53.5914 38.7217 53.1657 38.3205C52.7399 37.9192 52.5007 37.375 52.5007 36.8075C52.5007 36.2401 52.7399 35.6959 53.1657 35.2946C53.5914 34.8933 54.1689 34.6679 54.771 34.6679H122.311C122.913 34.6679 123.491 34.8933 123.917 35.2946C124.342 35.6959 124.581 36.2401 124.581 36.8075C124.581 37.375 124.342 37.9192 123.917 38.3205C123.491 38.7217 122.913 38.9472 122.311 38.9472Z" fill="#DCDCDC"/>
<path d="M73.7699 62.2156H38.5808C38.2825 62.2159 37.987 62.1608 37.7112 62.0535C37.4355 61.9461 37.1849 61.7885 36.9738 61.5898C36.7627 61.3911 36.5952 61.1551 36.4809 60.8954C36.3667 60.6356 36.3079 60.3572 36.3079 60.076C36.3079 59.7948 36.3667 59.5163 36.4809 59.2566C36.5952 58.9968 36.7627 58.7608 36.9738 58.5621C37.1849 58.3634 37.4355 58.2059 37.7112 58.0985C37.987 57.9911 38.2825 57.936 38.5808 57.9363H73.7699C74.372 57.9363 74.9495 58.1618 75.3752 58.563C75.801 58.9643 76.0402 59.5085 76.0402 60.076C76.0402 60.6434 75.801 61.1877 75.3752 61.5889C74.9495 61.9902 74.372 62.2156 73.7699 62.2156Z" fill="#DCDCDC"/>
<path d="M138.756 62.2156H103.567C103.269 62.2159 102.973 62.1608 102.697 62.0535C102.422 61.9461 102.171 61.7885 101.96 61.5898C101.749 61.3911 101.581 61.1551 101.467 60.8954C101.353 60.6356 101.294 60.3572 101.294 60.076C101.294 59.7948 101.353 59.5163 101.467 59.2566C101.581 58.9968 101.749 58.7608 101.96 58.5621C102.171 58.3634 102.422 58.2059 102.697 58.0985C102.973 57.9911 103.269 57.936 103.567 57.9363H138.756C139.054 57.936 139.35 57.9911 139.626 58.0985C139.901 58.2059 140.152 58.3634 140.363 58.5621C140.574 58.7608 140.742 58.9968 140.856 59.2566C140.97 59.5163 141.029 59.7948 141.029 60.076C141.029 60.3572 140.97 60.6356 140.856 60.8954C140.742 61.1551 140.574 61.3911 140.363 61.5898C140.152 61.7885 139.901 61.9461 139.626 62.0535C139.35 62.1608 139.054 62.2159 138.756 62.2156Z" fill="#DCDCDC"/>
<path d="M174.731 0H2.4735C1.81724 0.000940944 1.18818 0.247267 0.724431 0.6849C0.260683 1.12253 0.000144087 1.71571 0 2.33421V112.343C0.00082677 112.961 0.261691 113.553 0.725385 113.99C1.18908 114.427 1.81775 114.673 2.4735 114.674H131.286C131.253 114.453 131.227 114.229 131.201 114.008H2.4735C2.00493 114.008 1.55567 113.832 1.22433 113.52C0.892988 113.208 0.706647 112.784 0.706216 112.343V2.33421C0.706521 1.89228 0.892716 1.46849 1.22399 1.15571C1.55526 0.842936 2.00459 0.66669 2.4735 0.665603H174.731C175.201 0.666065 175.651 0.842012 175.983 1.15484C176.315 1.46766 176.501 1.89181 176.502 2.33421V69.7565C176.736 69.7718 176.974 69.7902 177.208 69.8117V2.33421C177.208 1.71522 176.947 1.12167 176.482 0.683982C176.018 0.246297 175.388 0.000284466 174.731 0Z" fill="#DCDCDC"/>
<path d="M131.286 114.674C131.253 114.453 131.227 114.229 131.201 114.008C131.195 113.975 131.192 113.944 131.188 113.91C131.094 113.103 131.026 112.289 130.983 111.466C130.804 112.174 130.643 112.886 130.498 113.6C130.508 113.705 130.518 113.806 130.531 113.91C130.534 113.944 130.537 113.975 130.544 114.008C130.57 114.229 130.596 114.453 130.629 114.674C130.72 115.358 130.83 116.033 130.961 116.705C130.964 116.677 130.967 116.652 130.97 116.625C131.062 115.978 131.166 115.333 131.289 114.689C131.287 114.685 131.286 114.679 131.286 114.674ZM177.208 69.1951C176.974 69.1737 176.736 69.1553 176.502 69.1399C176.466 69.1369 176.433 69.1369 176.398 69.1338C175.356 69.0602 174.302 69.0234 173.241 69.0234C167.234 69.0251 161.294 70.2138 155.804 72.5126C150.315 74.8115 145.398 78.1694 141.37 82.3698C137.343 86.5702 134.294 91.5197 132.422 96.899C130.549 102.278 129.894 107.968 130.498 113.6C130.508 113.705 130.518 113.806 130.531 113.91C130.534 113.944 130.537 113.975 130.544 114.008C130.57 114.229 130.596 114.453 130.629 114.674C130.72 115.358 130.83 116.033 130.961 116.705C132.254 123.364 135.291 129.614 139.796 134.887C144.301 140.161 150.132 144.291 156.76 146.902C157.437 147.166 158.12 147.417 158.813 147.647C159.269 147.804 159.724 147.948 160.187 148.086C160.519 148.187 160.854 148.282 161.189 148.374C161.664 148.506 162.146 148.632 162.631 148.749C168.579 150.187 174.787 150.4 180.831 149.375C186.875 148.349 192.614 146.108 197.656 142.804H197.66C203.378 139.083 208.053 134.11 211.282 128.311C214.512 122.512 216.2 116.061 216.201 109.512C216.201 88.4455 199.043 71.0877 177.208 69.1951ZM197.377 142.243C195.388 143.551 193.283 144.696 191.085 145.663C189.506 146.359 187.882 146.962 186.223 147.466C178.736 149.737 170.726 149.999 163.09 148.224C162.517 148.092 161.948 147.948 161.384 147.792C160.828 147.638 160.277 147.476 159.731 147.304C159.285 147.16 158.839 147.012 158.397 146.856C157.934 146.69 157.479 146.519 157.023 146.341C150.17 143.649 144.186 139.309 139.67 133.755C135.154 128.2 132.264 121.626 131.289 114.689C131.287 114.685 131.286 114.679 131.286 114.674C131.253 114.453 131.227 114.229 131.201 114.008C131.195 113.975 131.192 113.944 131.188 113.91C131.094 113.103 131.026 112.289 130.983 111.466C130.948 110.818 130.93 110.167 130.931 109.512C130.944 98.9398 135.405 88.8042 143.337 81.3287C151.269 73.8532 162.023 69.6484 173.241 69.6368C174.302 69.6368 175.356 69.6736 176.398 69.7473C176.433 69.7503 176.466 69.7534 176.502 69.7565C176.736 69.7718 176.974 69.7902 177.208 69.8117C198.685 71.7011 215.55 88.7829 215.55 109.512C215.549 115.945 213.896 122.282 210.731 127.982C207.566 133.682 202.984 138.575 197.377 142.243ZM158.397 146.856C157.934 146.69 157.479 146.519 157.023 146.341C150.17 143.649 144.186 139.309 139.67 133.755C135.154 128.2 132.264 121.626 131.289 114.689C131.166 115.333 131.062 115.978 130.97 116.625C130.967 116.652 130.964 116.677 130.961 116.705C132.254 123.364 135.291 129.614 139.796 134.887C144.301 140.161 150.132 144.291 156.76 146.902C157.437 147.166 158.12 147.417 158.813 147.647C158.67 147.387 158.53 147.123 158.397 146.856ZM176.398 69.1338C175.356 69.0602 174.302 69.0234 173.241 69.0234C167.234 69.0251 161.294 70.2138 155.804 72.5126C150.315 74.8115 145.398 78.1694 141.37 82.3698C137.343 86.5702 134.294 91.5197 132.422 96.899C130.549 102.278 129.894 107.968 130.498 113.6C130.508 113.705 130.518 113.806 130.531 113.91C130.534 113.944 130.537 113.975 130.544 114.008H131.201C131.195 113.975 131.192 113.944 131.188 113.91C131.094 113.103 131.026 112.289 130.983 111.466C130.948 110.818 130.93 110.167 130.931 109.512C130.944 98.9398 135.405 88.8042 143.337 81.3287C151.269 73.8532 162.023 69.6484 173.241 69.6368C174.302 69.6368 175.356 69.6736 176.398 69.7473C176.433 69.7503 176.466 69.7534 176.502 69.7565L176.502 69.1399C176.466 69.1369 176.433 69.1369 176.398 69.1338Z" fill="#3F3D56"/>
<path d="M208.16 79.3867C221.356 79.5991 221.354 98.0975 208.16 98.308C194.965 98.0957 194.967 79.5973 208.16 79.3867Z" fill="#FF4181"/>
<path d="M208.161 93.9988C207.973 93.9986 207.794 93.9284 207.662 93.8038C207.53 93.6791 207.455 93.5102 207.455 93.3339V89.8087C207.455 89.7301 207.422 89.6548 207.363 89.5992C207.304 89.5437 207.224 89.5124 207.141 89.5123H203.4C203.213 89.5123 203.034 89.4422 202.901 89.3175C202.769 89.1928 202.695 89.0237 202.695 88.8473C202.695 88.671 202.769 88.5018 202.901 88.3771C203.034 88.2524 203.213 88.1824 203.4 88.1824H207.141C207.224 88.1823 207.304 88.1511 207.363 88.0955C207.422 88.04 207.455 87.9647 207.455 87.8862V84.3608C207.455 84.1844 207.529 84.0153 207.662 83.8907C207.794 83.766 207.973 83.6959 208.16 83.6959C208.348 83.6959 208.527 83.766 208.659 83.8907C208.792 84.0153 208.866 84.1844 208.866 84.3608V87.8862C208.866 87.9647 208.899 88.04 208.958 88.0955C209.017 88.1511 209.097 88.1823 209.18 88.1823H212.921C213.108 88.1823 213.287 88.2524 213.42 88.3771C213.552 88.5018 213.626 88.671 213.626 88.8473C213.626 89.0237 213.552 89.1928 213.42 89.3175C213.287 89.4422 213.108 89.5123 212.921 89.5123H209.18C209.097 89.5124 209.017 89.5437 208.958 89.5992C208.899 89.6548 208.866 89.7301 208.866 89.8086V93.3339C208.866 93.5101 208.791 93.6791 208.659 93.8038C208.527 93.9284 208.348 93.9985 208.161 93.9988Z" fill="white"/>
<path d="M172.673 113.718C181.85 113.718 189.289 106.707 189.289 98.0585C189.289 89.4098 181.85 82.3986 172.673 82.3986C163.496 82.3986 156.057 89.4098 156.057 98.0585C156.057 106.707 163.496 113.718 172.673 113.718Z" fill="#3A52B5"/>
<path d="M199.895 135.416H146.656V135.256C146.661 130.639 148.61 126.211 152.075 122.946C155.54 119.681 160.237 117.844 165.137 117.839H181.414C186.313 117.844 191.011 119.681 194.476 122.946C197.94 126.211 199.889 130.639 199.895 135.256V135.416Z" fill="#3A52B5"/>
</g>
<defs>
<clipPath id="clip0_17_291">
<rect width="225" height="150" fill="white"/>
</clipPath>
</defs>
</svg>
