<svg width="225" height="150" viewBox="0 0 225 150" fill="none" xmlns="http://www.w3.org/2000/svg">
<g clip-path="url(#clip0_19_292)">
<mask id="mask0_19_292" style="mask-type:luminance" maskUnits="userSpaceOnUse" x="0" y="0" width="225" height="150">
<path d="M225 0H0V150H225V0Z" fill="white"/>
</mask>
<g mask="url(#mask0_19_292)">
<path d="M191.619 149.607H113.805C111.68 149.607 109.95 147.371 109.95 144.622V77.3466C109.961 76.7858 110.088 76.2424 110.317 75.7868C110.546 75.3314 110.866 74.9847 111.235 74.792L147.467 54.0922C150.796 52.211 154.501 52.2084 157.832 54.0848L194.187 74.793C194.556 74.9852 194.876 75.3318 195.106 75.7876C195.336 76.2434 195.463 76.7873 195.473 77.3485V144.622C195.473 147.371 193.745 149.607 191.619 149.607Z" fill="#3A52B5"/>
<path d="M67.3945 78.958C73.6916 78.958 78.7964 71.6671 78.7964 62.6735C78.7964 53.6799 73.6916 46.389 67.3945 46.389C61.0975 46.389 55.9927 53.6799 55.9927 62.6735C55.9927 71.6671 61.0975 78.958 67.3945 78.958Z" fill="#FF4181"/>
<path d="M72.1611 121.962C80.1367 121.962 86.6021 110.404 86.6021 96.1462C86.6021 81.8878 80.1367 70.3295 72.1611 70.3295C64.1856 70.3295 57.7202 81.8878 57.7202 96.1462C57.7202 110.404 64.1856 121.962 72.1611 121.962Z" fill="#DCDCDC"/>
<path d="M72.2008 90.9546H72.2404L72.9546 149.43H71.4471L72.2008 90.9546Z" fill="#CCCCCC"/>
<path d="M74.6639 129.667C74.7081 129.787 74.7171 129.926 74.6891 130.056C74.661 130.185 74.5981 130.292 74.5143 130.356L72.4431 131.913L72.1105 131.01L74.1817 129.454C74.2655 129.391 74.3634 129.377 74.4538 129.418C74.5442 129.457 74.6199 129.547 74.6639 129.667Z" fill="#CCCCCC"/>
<path d="M30.6439 121.962C38.6194 121.962 45.0848 110.404 45.0848 96.1462C45.0848 81.8878 38.6194 70.3295 30.6439 70.3295C22.6684 70.3295 16.2029 81.8878 16.2029 96.1462C16.2029 110.404 22.6684 121.962 30.6439 121.962Z" fill="#DCDCDC"/>
<path d="M33.1466 130.634C33.1026 130.514 33.0269 130.425 32.9365 130.384C32.846 130.344 32.7481 130.357 32.6643 130.42L31.2184 131.508L30.7232 90.9545H30.6835L29.9298 149.43H31.4373L31.2323 132.649L32.997 131.323C33.0808 131.259 33.1437 131.152 33.1717 131.023C33.1997 130.893 33.1907 130.754 33.1466 130.634Z" fill="#CCCCCC"/>
<path d="M51.3523 36.6508C61.4581 36.6508 69.6721 63.8469 69.6721 81.9133C69.6721 99.9792 61.4796 114.625 51.3738 114.625C41.268 114.625 33.0756 99.9792 33.0756 81.9133C33.0756 63.8469 41.2464 36.6508 51.3523 36.6508Z" fill="#3A52B5"/>
<path d="M54.5451 125.613C54.5175 125.538 54.4797 125.472 54.434 125.417C54.3884 125.363 54.3356 125.323 54.2789 125.297C54.2221 125.272 54.1625 125.263 54.1033 125.271C54.0442 125.278 53.9867 125.303 53.9341 125.342L52.1019 126.72L51.4745 75.3353H51.4242L50.4691 149.43H52.3793L52.1197 128.167L54.3557 126.486C54.4082 126.446 54.4548 126.392 54.4928 126.327C54.5307 126.262 54.5594 126.187 54.5769 126.106C54.5946 126.024 54.6008 125.94 54.5954 125.855C54.5899 125.771 54.5729 125.689 54.5451 125.613Z" fill="#3F3D56"/>
<path d="M134.543 103.374V96.4169C134.543 95.5094 134.291 94.6386 133.841 93.9972C133.392 93.3555 132.783 92.9951 132.147 92.9951H119.854C119.219 92.9951 118.609 93.3555 118.16 93.9972C117.711 94.6386 117.458 95.5094 117.458 96.4169V103.374H134.543Z" fill="white"/>
<path d="M117.458 104.467V115.249C117.458 116.157 117.711 117.027 118.16 117.669C118.609 118.31 119.219 118.671 119.854 118.671H132.147C132.783 118.671 133.392 118.31 133.841 117.669C134.291 117.027 134.543 116.157 134.543 115.249V104.467H117.458Z" fill="white"/>
<path d="M192.514 84.2764L155.605 64.9525C153.362 63.7781 150.899 63.7781 148.656 64.9525L111.748 84.2764C110.97 84.6836 110.134 84.8167 109.313 84.6643C108.491 84.5118 107.707 84.0784 107.028 83.4008C106.349 82.7232 105.794 81.8215 105.411 80.7721C105.028 79.7228 104.828 78.557 104.828 77.3736C104.828 75.8678 105.152 74.3983 105.756 73.1637C106.36 71.9292 107.215 70.9893 108.204 70.471L148.656 49.292C150.899 48.1175 153.362 48.1175 155.605 49.292L196.057 70.471C197.047 70.9893 197.901 71.9292 198.506 73.1637C199.11 74.3983 199.433 75.8678 199.433 77.3736C199.433 78.557 199.233 79.7228 198.85 80.7721C198.467 81.8215 197.913 82.7232 197.233 83.4008C196.554 84.0784 195.77 84.5118 194.948 84.6643C194.127 84.8167 193.292 84.6836 192.514 84.2764Z" fill="#3F3D56"/>
<path d="M158.09 149.929H148.226C147.179 149.927 146.175 149.333 145.435 148.275C144.694 147.218 144.278 145.785 144.277 144.29V110.17C144.278 108.674 144.694 107.241 145.435 106.184C146.175 105.126 147.179 104.532 148.226 104.53H158.09C159.137 104.532 160.141 105.126 160.881 106.184C161.621 107.241 162.038 108.674 162.039 110.17V144.29C162.038 145.785 161.621 147.218 160.881 148.275C160.141 149.333 159.137 149.927 158.09 149.929ZM148.226 105.497C147.358 105.498 146.527 105.991 145.914 106.867C145.3 107.743 144.955 108.931 144.954 110.17V144.29C144.955 145.528 145.3 146.716 145.914 147.592C146.527 148.468 147.358 148.961 148.226 148.962H158.09C158.958 148.961 159.789 148.468 160.403 147.592C161.016 146.716 161.361 145.528 161.362 144.29V110.17C161.361 108.931 161.016 107.743 160.403 106.867C159.789 105.991 158.958 105.498 158.09 105.497H148.226Z" fill="#3F3D56"/>
<path d="M159.047 31.9624C158.888 29.4258 158.071 27.066 156.755 25.3472C155.439 23.6286 153.72 22.6754 151.937 22.6754C150.154 22.6754 148.436 23.6286 147.119 25.3472C145.803 27.066 144.986 29.4258 144.827 31.9624H159.047Z" fill="white"/>
<path d="M144.801 33.0551C144.833 35.7273 145.6 38.2744 146.934 40.1476C148.269 42.0208 150.066 43.0704 151.937 43.0704C153.808 43.0704 155.605 42.0208 156.94 40.1476C158.274 38.2744 159.041 35.7273 159.074 33.0551H144.801Z" fill="white"/>
<path d="M117.586 115.191C117.075 115.191 116.584 115.48 116.223 115.996C115.861 116.512 115.658 117.212 115.658 117.942C115.658 118.673 115.861 119.373 116.223 119.889C116.584 120.405 117.075 120.695 117.586 120.695H134.416C134.927 120.695 135.417 120.405 135.779 119.889C136.139 119.373 136.343 118.673 136.343 117.942C136.343 117.212 136.139 116.512 135.779 115.996C135.417 115.48 134.927 115.191 134.416 115.191H117.586Z" fill="#CCCCCC"/>
<path d="M169.861 104.467V115.249C169.861 116.157 170.113 117.027 170.562 117.669C171.012 118.31 171.621 118.671 172.257 118.671H184.55C185.185 118.671 185.795 118.31 186.244 117.669C186.693 117.027 186.945 116.157 186.945 115.249V104.467H169.861Z" fill="white"/>
<path d="M186.945 103.374V96.4169C186.945 95.5094 186.693 94.6386 186.244 93.9972C185.795 93.3555 185.185 92.9951 184.55 92.9951H172.257C171.621 92.9951 171.012 93.3555 170.562 93.9972C170.113 94.6386 169.861 95.5094 169.861 96.4169V103.374H186.945Z" fill="white"/>
<path d="M159.023 128.323C159.798 128.323 160.426 127.425 160.426 126.319C160.426 125.213 159.798 124.316 159.023 124.316C158.249 124.316 157.621 125.213 157.621 126.319C157.621 127.425 158.249 128.323 159.023 128.323Z" fill="#3F3D56"/>
<path d="M111.913 127.608L106.388 115.335L106.644 115.1L111.886 126.746L116.158 115.117L116.427 115.319L111.913 127.608Z" fill="#3F3D56"/>
<path d="M116.412 111.312H103.27V110.987C103.27 110.459 103.197 109.938 103.056 109.45C102.915 108.963 102.708 108.521 102.446 108.148C102.186 107.775 101.876 107.479 101.534 107.278C101.194 107.076 100.828 106.973 100.46 106.973C100.09 106.973 99.7242 107.076 99.3838 107.278C99.0425 107.479 98.7325 107.775 98.4719 108.148C98.2104 108.521 98.0041 108.963 97.8623 109.45C97.7213 109.938 97.6483 110.459 97.6483 110.987V111.312H96.3569C95.6114 111.312 94.8965 111.735 94.3701 112.488C93.8428 113.241 93.5465 114.261 93.5465 115.326C93.5465 116.391 93.8428 117.412 94.3701 118.165C94.8965 118.918 95.6114 119.341 96.3569 119.341H97.6483V149.677C103.249 149.517 97.6075 149.839 103.27 149.677V119.341H116.412C117.157 119.341 117.872 118.918 118.399 118.165C118.926 117.412 119.222 116.391 119.222 115.326C119.222 114.261 118.926 113.241 118.399 112.488C117.872 111.735 117.157 111.312 116.412 111.312Z" fill="#3F3D56"/>
<path d="M100.383 116.737C100.971 116.737 101.447 116.057 101.447 115.218C101.447 114.379 100.971 113.699 100.383 113.699C99.7955 113.699 99.3201 114.379 99.3201 115.218C99.3201 116.057 99.7955 116.737 100.383 116.737Z" fill="white"/>
<path d="M118.082 135.341H105.929C105.355 135.341 104.805 135.015 104.399 134.435C103.993 133.856 103.765 133.07 103.765 132.25V126.611C103.765 125.791 103.993 125.006 104.399 124.425C104.805 123.846 105.355 123.52 105.929 123.519H118.082C118.656 123.52 119.206 123.846 119.612 124.425C120.018 125.006 120.246 125.791 120.247 126.611V132.25C120.246 133.07 120.018 133.856 119.612 134.435C119.206 135.015 118.656 135.341 118.082 135.341Z" fill="#CCCCCC"/>
<path d="M115.804 128.02H108.055C107.594 128.02 107.22 128.555 107.22 129.213C107.22 129.873 107.594 130.407 108.055 130.407H115.804C116.266 130.407 116.639 129.873 116.639 129.213C116.639 128.555 116.266 128.02 115.804 128.02Z" fill="#6C63FF"/>
<path d="M224.826 150H0.17443C0.128168 150 0.0838021 149.974 0.0510899 149.927C0.0183777 149.88 0 149.817 0 149.751C0 149.685 0.0183777 149.622 0.0510899 149.575C0.0838021 149.528 0.128168 149.502 0.17443 149.502H224.826C224.872 149.502 224.916 149.528 224.949 149.575C224.981 149.622 225 149.685 225 149.751C225 149.817 224.981 149.88 224.949 149.927C224.916 149.974 224.872 150 224.826 150Z" fill="#CCCCCC"/>
<path d="M186.691 121.017H169.861C169.289 121.017 168.742 120.693 168.338 120.117C167.935 119.541 167.707 118.758 167.707 117.942C167.707 117.127 167.935 116.345 168.338 115.769C168.742 115.191 169.289 114.868 169.861 114.868H186.691C187.261 114.868 187.809 115.191 188.213 115.769C188.616 116.345 188.843 117.127 188.843 117.942C188.843 118.758 188.616 119.541 188.213 120.117C187.809 120.693 187.261 121.017 186.691 121.017Z" fill="#CCCCCC"/>
</g>
</g>
<defs>
<clipPath id="clip0_19_292">
<rect width="225" height="150" fill="white"/>
</clipPath>
</defs>
</svg>
